<?xml version="1.0" encoding="UTF-8" standalone="no"?>
<!DOCTYPE svg PUBLIC "-//W3C//DTD SVG 1.1//EN"
 "http://www.w3.org/Graphics/SVG/1.1/DTD/svg11.dtd">
<!-- Generated by graphviz version 2.40.1 (0)
 -->
<!-- Title: SFG Pages: 1 -->
<svg width="2775pt" height="481pt"
 viewBox="0.00 0.00 2774.85 480.54" xmlns="http://www.w3.org/2000/svg" xmlns:xlink="http://www.w3.org/1999/xlink">
<g id="graph0" class="graph" transform="scale(1 1) rotate(0) translate(25.2 455.3361)">
<title>SFG</title>
<polygon fill="#ffffff" stroke="transparent" points="-25.2,25.2 -25.2,-455.3361 2749.6462,-455.3361 2749.6462,25.2 -25.2,25.2"/>
<!-- &#45;100 -->
<g id="node1" class="node">
<title>&#45;100</title>
<ellipse fill="#dcfce7" stroke="#64748b" cx="27" cy="-351.1361" rx="27" ry="18"/>
<text text-anchor="middle" x="27" y="-348.3361" font-family="Helvetica,sans-Serif" font-size="11.00" fill="#000000">VI</text>
</g>
<!-- 2.000000_S1 -->
<g id="node19" class="node">
<title>2.000000_S1</title>
<ellipse fill="#dbeafe" stroke="#64748b" cx="155.0803" cy="-351.1361" rx="27.1205" ry="18"/>
<text text-anchor="middle" x="155.0803" y="-348.3361" font-family="Helvetica,sans-Serif" font-size="11.00" fill="#000000">2_S1</text>
</g>
<!-- &#45;100&#45;&gt;2.000000_S1 -->
<g id="edge1" class="edge">
<title>&#45;100&#45;&gt;2.000000_S1</title>
<g id="a_edge1"><a xlink:title="1">
<path fill="none" stroke="#64748b" d="M54.1625,-351.1361C73.6058,-351.1361 99.9288,-351.1361 120.8158,-351.1361"/>
<polygon fill="#64748b" stroke="#64748b" points="120.9569,-353.5862 127.9569,-351.1361 120.9569,-348.6862 120.9569,-353.5862"/>
</a>
</g>
<text text-anchor="middle" x="86.5" y="-353.9361" font-family="Helvetica,sans-Serif" font-size="9.00" fill="#000000">1</text>
</g>
<!-- &#45;1024.000000_S1 -->
<g id="node2" class="node">
<title>&#45;1024.000000_S1</title>
<ellipse fill="#ffedd5" stroke="#64748b" cx="2102.9177" cy="-99.1361" rx="42.8909" ry="18"/>
<text text-anchor="middle" x="2102.9177" y="-96.3361" font-family="Helvetica,sans-Serif" font-size="11.00" fill="#000000">&#45;1024_S1</text>
</g>
<!-- 1024.000000_S1 -->
<g id="node16" class="node">
<title>1024.000000_S1</title>
<ellipse fill="#dbeafe" stroke="#64748b" cx="2268.5037" cy="-211.1361" rx="40.7822" ry="18"/>
<text text-anchor="middle" x="2268.5037" y="-208.3361" font-family="Helvetica,sans-Serif" font-size="11.00" fill="#000000">1024_S1</text>
</g>
<!-- &#45;1024.000000_S1&#45;&gt;1024.000000_S1 -->
<g id="edge2" class="edge">
<title>&#45;1024.000000_S1&#45;&gt;1024.000000_S1</title>
<g id="a_edge2"><a xlink:title="1/(gdsP1S1+s.CdsP1S1+gdsP1sS1+s.CgsP1sS1+s.CdsP1sS1)">
<path fill="none" stroke="#64748b" d="M2125.5946,-114.4744C2155.446,-134.6655 2207.9194,-170.1578 2240.2986,-192.0586"/>
<polygon fill="#64748b" stroke="#64748b" points="2238.9298,-194.0906 2246.1007,-195.9831 2241.6752,-190.0318 2238.9298,-194.0906"/>
</a>
</g>
<text text-anchor="middle" x="2186.6127" y="-164.9361" font-family="Helvetica,sans-Serif" font-size="9.00" fill="#000000">e002</text>
</g>
<!-- &#45;128.000000_S1 -->
<g id="node3" class="node">
<title>&#45;128.000000_S1</title>
<ellipse fill="#ffedd5" stroke="#64748b" cx="683.7779" cy="-66.1361" rx="38.4712" ry="18"/>
<text text-anchor="middle" x="683.7779" y="-63.3361" font-family="Helvetica,sans-Serif" font-size="11.00" fill="#000000">&#45;128_S1</text>
</g>
<!-- 128.000000_S1 -->
<g id="node17" class="node">
<title>128.000000_S1</title>
<ellipse fill="#dbeafe" stroke="#64748b" cx="155.0803" cy="-136.1361" rx="36.1607" ry="18"/>
<text text-anchor="middle" x="155.0803" y="-133.3361" font-family="Helvetica,sans-Serif" font-size="11.00" fill="#000000">128_S1</text>
</g>
<!-- &#45;128.000000_S1&#45;&gt;128.000000_S1 -->
<g id="edge3" class="edge">
<title>&#45;128.000000_S1&#45;&gt;128.000000_S1</title>
<g id="a_edge3"><a xlink:title="1/(s.CgsM4S1+s.CgsM4sS1+s.CgsM5S1+gmM5S1+gdsM5S1+s.CgsM5sS1)">
<path fill="none" stroke="#64748b" d="M647.5007,-59.8469C577.2284,-48.9707 418.1927,-30.7537 290.1605,-63.1361 249.2487,-73.4837 207.28,-98.9495 181.2067,-116.8784"/>
<polygon fill="#64748b" stroke="#64748b" points="179.5901,-115.0189 175.2511,-121.0335 182.3938,-119.0375 179.5901,-115.0189"/>
</a>
</g>
<text text-anchor="middle" x="418.1318" y="-49.9361" font-family="Helvetica,sans-Serif" font-size="9.00" fill="#000000">e003</text>
</g>
<!-- &#45;16.000000_S1 -->
<g id="node4" class="node">
<title>&#45;16.000000_S1</title>
<ellipse fill="#ffedd5" stroke="#64748b" cx="1031.7003" cy="-262.1361" rx="33.8507" ry="18"/>
<text text-anchor="middle" x="1031.7003" y="-259.3361" font-family="Helvetica,sans-Serif" font-size="11.00" fill="#000000">&#45;16_S1</text>
</g>
<!-- 16.000000_S1 -->
<g id="node18" class="node">
<title>16.000000_S1</title>
<ellipse fill="#dbeafe" stroke="#64748b" cx="1299.0482" cy="-266.1361" rx="31.7423" ry="18"/>
<text text-anchor="middle" x="1299.0482" y="-263.3361" font-family="Helvetica,sans-Serif" font-size="11.00" fill="#000000">16_S1</text>
</g>
<!-- &#45;16.000000_S1&#45;&gt;16.000000_S1 -->
<g id="edge4" class="edge">
<title>&#45;16.000000_S1&#45;&gt;16.000000_S1</title>
<g id="a_edge4"><a xlink:title="1/(gdsM3S1+s.CgsM3S1+s.CdsM3S1+gdsM3sS1+s.CdsM3sS1)">
<path fill="none" stroke="#64748b" d="M1065.5601,-262.6427C1115.2123,-263.3856 1207.5512,-264.7672 1260,-265.5519"/>
<polygon fill="#64748b" stroke="#64748b" points="1260.0915,-268.0034 1267.1274,-265.6585 1260.1649,-263.104 1260.0915,-268.0034"/>
</a>
</g>
<text text-anchor="middle" x="1115.3953" y="-265.9361" font-family="Helvetica,sans-Serif" font-size="9.00" fill="#000000">e004</text>
</g>
<!-- &#45;2048.000000_S1 -->
<g id="node5" class="node">
<title>&#45;2048.000000_S1</title>
<ellipse fill="#ffedd5" stroke="#64748b" cx="1402.614" cy="-199.1361" rx="42.8909" ry="18"/>
<text text-anchor="middle" x="1402.614" y="-196.3361" font-family="Helvetica,sans-Serif" font-size="11.00" fill="#000000">&#45;2048_S1</text>
</g>
<!-- 2048.000000_S1 -->
<g id="node20" class="node">
<title>2048.000000_S1</title>
<ellipse fill="#dbeafe" stroke="#64748b" cx="1568.2" cy="-104.1361" rx="40.7822" ry="18"/>
<text text-anchor="middle" x="1568.2" y="-101.3361" font-family="Helvetica,sans-Serif" font-size="11.00" fill="#000000">2048_S1</text>
</g>
<!-- &#45;2048.000000_S1&#45;&gt;2048.000000_S1 -->
<g id="edge5" class="edge">
<title>&#45;2048.000000_S1&#45;&gt;2048.000000_S1</title>
<g id="a_edge5"><a xlink:title="1/(s.CgsP1S1+s.CgsP1sS1+gmP1sS1+gdsP1sS1+s.CgsP2S1+s.CgsP2sS1+gdsM0S1+s.CdsM0S1)">
<path fill="none" stroke="#64748b" d="M1428.124,-184.5006C1457.3437,-167.7366 1505.2344,-140.2607 1536.7415,-122.1845"/>
<polygon fill="#64748b" stroke="#64748b" points="1538.351,-124.0857 1543.2035,-118.4771 1535.9125,-119.8355 1538.351,-124.0857"/>
</a>
</g>
<text text-anchor="middle" x="1486.309" y="-160.9361" font-family="Helvetica,sans-Serif" font-size="9.00" fill="#000000">e005</text>
</g>
<!-- &#45;256.000000_S1 -->
<g id="node6" class="node">
<title>&#45;256.000000_S1</title>
<ellipse fill="#ffedd5" stroke="#64748b" cx="328.6462" cy="-94.1361" rx="38.4712" ry="18"/>
<text text-anchor="middle" x="328.6462" y="-91.3361" font-family="Helvetica,sans-Serif" font-size="11.00" fill="#000000">&#45;256_S1</text>
</g>
<!-- 256.000000_S1 -->
<g id="node21" class="node">
<title>256.000000_S1</title>
<ellipse fill="#dbeafe" stroke="#64748b" cx="505.212" cy="-94.1361" rx="36.1607" ry="18"/>
<text text-anchor="middle" x="505.212" y="-91.3361" font-family="Helvetica,sans-Serif" font-size="11.00" fill="#000000">256_S1</text>
</g>
<!-- &#45;256.000000_S1&#45;&gt;256.000000_S1 -->
<g id="edge6" class="edge">
<title>&#45;256.000000_S1&#45;&gt;256.000000_S1</title>
<g id="a_edge6"><a xlink:title="1/(gdsM5S1+s.CgsM5S1+s.CdsM5S1+gdsM5sS1+s.CdsM5sS1)">
<path fill="none" stroke="#64748b" d="M367.3943,-94.1361C395.282,-94.1361 432.9202,-94.1361 461.8165,-94.1361"/>
<polygon fill="#64748b" stroke="#64748b" points="461.9635,-96.5862 468.9635,-94.1361 461.9634,-91.6862 461.9635,-96.5862"/>
</a>
</g>
<text text-anchor="middle" x="418.1318" y="-96.9361" font-family="Helvetica,sans-Serif" font-size="9.00" fill="#000000">e006</text>
</g>
<!-- &#45;32.000000_S1 -->
<g id="node7" class="node">
<title>&#45;32.000000_S1</title>
<ellipse fill="#ffedd5" stroke="#64748b" cx="683.7779" cy="-199.1361" rx="33.8507" ry="18"/>
<text text-anchor="middle" x="683.7779" y="-196.3361" font-family="Helvetica,sans-Serif" font-size="11.00" fill="#000000">&#45;32_S1</text>
</g>
<!-- 32.000000_S1 -->
<g id="node22" class="node">
<title>32.000000_S1</title>
<ellipse fill="#dbeafe" stroke="#64748b" cx="853.1344" cy="-199.1361" rx="31.7423" ry="18"/>
<text text-anchor="middle" x="853.1344" y="-196.3361" font-family="Helvetica,sans-Serif" font-size="11.00" fill="#000000">32_S1</text>
</g>
<!-- &#45;32.000000_S1&#45;&gt;32.000000_S1 -->
<g id="edge7" class="edge">
<title>&#45;32.000000_S1&#45;&gt;32.000000_S1</title>
<g id="a_edge7"><a xlink:title="1/(gdsM0sS1+s.CgsM0sS1+s.CdsM0sS1+gdsM3sS1+s.CgsM3sS1+s.CdsM3sS1+gdsM4S1+s.CdsM4S1)">
<path fill="none" stroke="#64748b" d="M717.6427,-199.1361C745.4067,-199.1361 784.7357,-199.1361 813.8742,-199.1361"/>
<polygon fill="#64748b" stroke="#64748b" points="814.0496,-201.5862 821.0495,-199.1361 814.0495,-196.6862 814.0496,-201.5862"/>
</a>
</g>
<text text-anchor="middle" x="771.7635" y="-201.9361" font-family="Helvetica,sans-Serif" font-size="9.00" fill="#000000">e007</text>
</g>
<!-- &#45;4.000000_S1 -->
<g id="node8" class="node">
<title>&#45;4.000000_S1</title>
<ellipse fill="#ffedd5" stroke="#64748b" cx="328.6462" cy="-351.1361" rx="29.4311" ry="18"/>
<text text-anchor="middle" x="328.6462" y="-348.3361" font-family="Helvetica,sans-Serif" font-size="11.00" fill="#000000">&#45;4_S1</text>
</g>
<!-- 4.000000_S1 -->
<g id="node23" class="node">
<title>4.000000_S1</title>
<ellipse fill="#dbeafe" stroke="#64748b" cx="505.212" cy="-279.1361" rx="27.1205" ry="18"/>
<text text-anchor="middle" x="505.212" y="-276.3361" font-family="Helvetica,sans-Serif" font-size="11.00" fill="#000000">4_S1</text>
</g>
<!-- &#45;4.000000_S1&#45;&gt;4.000000_S1 -->
<g id="edge8" class="edge">
<title>&#45;4.000000_S1&#45;&gt;4.000000_S1</title>
<g id="a_edge8"><a xlink:title="1/(G1+s.C1+s.CgsM3S1+s.CgsM3sS1)">
<path fill="none" stroke="#64748b" d="M353.1969,-341.1248C385.1773,-328.0839 441.0493,-305.3004 475.4192,-291.2851"/>
<polygon fill="#64748b" stroke="#64748b" points="476.4363,-293.5162 481.993,-288.6044 474.5861,-288.979 476.4363,-293.5162"/>
</a>
</g>
<text text-anchor="middle" x="418.1318" y="-323.9361" font-family="Helvetica,sans-Serif" font-size="9.00" fill="#000000">e008</text>
</g>
<!-- &#45;4096.000000_S1 -->
<g id="node9" class="node">
<title>&#45;4096.000000_S1</title>
<ellipse fill="#ffedd5" stroke="#64748b" cx="1031.7003" cy="-199.1361" rx="42.8909" ry="18"/>
<text text-anchor="middle" x="1031.7003" y="-196.3361" font-family="Helvetica,sans-Serif" font-size="11.00" fill="#000000">&#45;4096_S1</text>
</g>
<!-- 4096.000000_S1 -->
<g id="node24" class="node">
<title>4096.000000_S1</title>
<ellipse fill="#dbeafe" stroke="#64748b" cx="1197.2863" cy="-199.1361" rx="40.7822" ry="18"/>
<text text-anchor="middle" x="1197.2863" y="-196.3361" font-family="Helvetica,sans-Serif" font-size="11.00" fill="#000000">4096_S1</text>
</g>
<!-- &#45;4096.000000_S1&#45;&gt;4096.000000_S1 -->
<g id="edge9" class="edge">
<title>&#45;4096.000000_S1&#45;&gt;4096.000000_S1</title>
<g id="a_edge9"><a xlink:title="1/(gdsM0S1+s.CgsM0S1+s.CdsM0S1+gdsM0sS1+s.CdsM0sS1)">
<path fill="none" stroke="#64748b" d="M1074.7738,-199.1361C1097.5263,-199.1361 1125.5235,-199.1361 1149.0079,-199.1361"/>
<polygon fill="#64748b" stroke="#64748b" points="1149.1405,-201.5862 1156.1405,-199.1361 1149.1405,-196.6862 1149.1405,-201.5862"/>
</a>
</g>
<text text-anchor="middle" x="1115.3953" y="-201.9361" font-family="Helvetica,sans-Serif" font-size="9.00" fill="#000000">e009</text>
</g>
<!-- &#45;512.000000_S1 -->
<g id="node10" class="node">
<title>&#45;512.000000_S1</title>
<ellipse fill="#ffedd5" stroke="#64748b" cx="1744.5766" cy="-48.1361" rx="38.4712" ry="18"/>
<text text-anchor="middle" x="1744.5766" y="-45.3361" font-family="Helvetica,sans-Serif" font-size="11.00" fill="#000000">&#45;512_S1</text>
</g>
<!-- 512.000000_S1 -->
<g id="node25" class="node">
<title>512.000000_S1</title>
<ellipse fill="#dbeafe" stroke="#64748b" cx="1920.1425" cy="-48.1361" rx="36.1607" ry="18"/>
<text text-anchor="middle" x="1920.1425" y="-45.3361" font-family="Helvetica,sans-Serif" font-size="11.00" fill="#000000">512_S1</text>
</g>
<!-- &#45;512.000000_S1&#45;&gt;512.000000_S1 -->
<g id="edge10" class="edge">
<title>&#45;512.000000_S1&#45;&gt;512.000000_S1</title>
<g id="a_edge10"><a xlink:title="1/(gdsP1S1+s.CgsP1S1+s.CdsP1S1+gdsP2S1+s.CgsP2S1+s.CdsP2S1)">
<path fill="none" stroke="#64748b" d="M1783.1053,-48.1361C1810.742,-48.1361 1848.009,-48.1361 1876.7032,-48.1361"/>
<polygon fill="#64748b" stroke="#64748b" points="1876.8026,-50.5862 1883.8026,-48.1361 1876.8025,-45.6862 1876.8026,-50.5862"/>
</a>
</g>
<text text-anchor="middle" x="1833.5622" y="-50.9361" font-family="Helvetica,sans-Serif" font-size="9.00" fill="#000000">e010</text>
</g>
<!-- &#45;64.000000_S1 -->
<g id="node11" class="node">
<title>&#45;64.000000_S1</title>
<ellipse fill="#ffedd5" stroke="#64748b" cx="328.6462" cy="-206.1361" rx="33.8507" ry="18"/>
<text text-anchor="middle" x="328.6462" y="-203.3361" font-family="Helvetica,sans-Serif" font-size="11.00" fill="#000000">&#45;64_S1</text>
</g>
<!-- 64.000000_S1 -->
<g id="node26" class="node">
<title>64.000000_S1</title>
<ellipse fill="#dbeafe" stroke="#64748b" cx="505.212" cy="-206.1361" rx="31.7423" ry="18"/>
<text text-anchor="middle" x="505.212" y="-203.3361" font-family="Helvetica,sans-Serif" font-size="11.00" fill="#000000">64_S1</text>
</g>
<!-- &#45;64.000000_S1&#45;&gt;64.000000_S1 -->
<g id="edge11" class="edge">
<title>&#45;64.000000_S1&#45;&gt;64.000000_S1</title>
<g id="a_edge11"><a xlink:title="1/(gdsM4S1+s.CgsM4S1+s.CdsM4S1+gdsM4sS1+s.CdsM4sS1)">
<path fill="none" stroke="#64748b" d="M362.6898,-206.1361C392.1918,-206.1361 434.8876,-206.1361 465.8504,-206.1361"/>
<polygon fill="#64748b" stroke="#64748b" points="466.0581,-208.5862 473.0581,-206.1361 466.058,-203.6862 466.0581,-208.5862"/>
</a>
</g>
<text text-anchor="middle" x="418.1318" y="-208.9361" font-family="Helvetica,sans-Serif" font-size="9.00" fill="#000000">e011</text>
</g>
<!-- &#45;8.000000_S1 -->
<g id="node12" class="node">
<title>&#45;8.000000_S1</title>
<ellipse fill="#ffedd5" stroke="#64748b" cx="2439.8602" cy="-267.1361" rx="29.4311" ry="18"/>
<text text-anchor="middle" x="2439.8602" y="-264.3361" font-family="Helvetica,sans-Serif" font-size="11.00" fill="#000000">&#45;8_S1</text>
</g>
<!-- 8.000000_S1 -->
<g id="node27" class="node">
<title>8.000000_S1</title>
<ellipse fill="#dbeafe" stroke="#64748b" cx="2578.386" cy="-318.1361" rx="27.1205" ry="18"/>
<text text-anchor="middle" x="2578.386" y="-315.3361" font-family="Helvetica,sans-Serif" font-size="11.00" fill="#000000">8_S1</text>
</g>
<!-- &#45;8.000000_S1&#45;&gt;8.000000_S1 -->
<g id="edge12" class="edge">
<title>&#45;8.000000_S1&#45;&gt;8.000000_S1</title>
<g id="a_edge12"><a xlink:title="1/(s.C1+gdsP2sS1+s.CdsP2sS1+gdsM3S1+s.CdsM3S1)">
<path fill="none" stroke="#64748b" d="M2465.268,-276.4903C2488.5429,-285.0593 2523.0416,-297.7604 2547.8159,-306.8814"/>
<polygon fill="#64748b" stroke="#64748b" points="2547.1128,-309.2332 2554.5282,-309.3526 2548.8057,-304.635 2547.1128,-309.2332"/>
</a>
</g>
<text text-anchor="middle" x="2510.3258" y="-299.9361" font-family="Helvetica,sans-Serif" font-size="9.00" fill="#000000">e012</text>
</g>
<!-- &#45;8192.000000_S1 -->
<g id="node13" class="node">
<title>&#45;8192.000000_S1</title>
<ellipse fill="#ffedd5" stroke="#64748b" cx="2102.9177" cy="-36.1361" rx="42.8909" ry="18"/>
<text text-anchor="middle" x="2102.9177" y="-33.3361" font-family="Helvetica,sans-Serif" font-size="11.00" fill="#000000">&#45;8192_S1</text>
</g>
<!-- 8192.000000_S1 -->
<g id="node28" class="node">
<title>8192.000000_S1</title>
<ellipse fill="#dbeafe" stroke="#64748b" cx="2268.5037" cy="-93.1361" rx="40.7822" ry="18"/>
<text text-anchor="middle" x="2268.5037" y="-90.3361" font-family="Helvetica,sans-Serif" font-size="11.00" fill="#000000">8192_S1</text>
</g>
<!-- &#45;8192.000000_S1&#45;&gt;8192.000000_S1 -->
<g id="edge13" class="edge">
<title>&#45;8192.000000_S1&#45;&gt;8192.000000_S1</title>
<g id="a_edge13"><a xlink:title="1/(gdsP2S1+s.CdsP2S1+gdsP2sS1+s.CgsP2sS1+s.CdsP2sS1)">
<path fill="none" stroke="#64748b" d="M2136.0285,-47.5339C2162.9399,-56.7977 2200.9644,-69.8869 2229.3771,-79.6675"/>
<polygon fill="#64748b" stroke="#64748b" points="2228.5982,-81.9904 2236.0145,-81.9523 2230.1932,-77.3573 2228.5982,-81.9904"/>
</a>
</g>
<text text-anchor="middle" x="2186.6127" y="-70.9361" font-family="Helvetica,sans-Serif" font-size="9.00" fill="#000000">e013</text>
</g>
<!-- 1 -->
<g id="node14" class="node">
<title>1</title>
<ellipse fill="#dbeafe" stroke="#64748b" cx="27" cy="-412.1361" rx="27" ry="18"/>
<text text-anchor="middle" x="27" y="-409.3361" font-family="Helvetica,sans-Serif" font-size="11.00" fill="#000000">1</text>
</g>
<!-- 100 -->
<g id="node15" class="node">
<title>100</title>
<ellipse fill="#dcfce7" stroke="#64748b" cx="2697.4462" cy="-318.1361" rx="27" ry="18"/>
<text text-anchor="middle" x="2697.4462" y="-315.3361" font-family="Helvetica,sans-Serif" font-size="11.00" fill="#000000">VO</text>
</g>
<!-- 1024.000000_S1&#45;&gt;&#45;2048.000000_S1 -->
<g id="edge14" class="edge">
<title>1024.000000_S1&#45;&gt;&#45;2048.000000_S1</title>
<g id="a_edge14"><a xlink:title="gmP1sS1">
<path fill="none" stroke="#64748b" d="M2227.6782,-209.9848C2194.1657,-209.1388 2145.4711,-208.1361 2102.9177,-208.1361 1568.2,-208.1361 1568.2,-208.1361 1568.2,-208.1361 1529.1221,-208.1361 1484.933,-205.606 1452.0385,-203.2288"/>
<polygon fill="#64748b" stroke="#64748b" points="1451.9372,-200.7647 1444.776,-202.6932 1451.5768,-205.6515 1451.9372,-200.7647"/>
</a>
</g>
<text text-anchor="middle" x="1833.5622" y="-210.9361" font-family="Helvetica,sans-Serif" font-size="9.00" fill="#000000">gmP1sS1</text>
</g>
<!-- 128.000000_S1&#45;&gt;&#45;256.000000_S1 -->
<g id="edge15" class="edge">
<title>128.000000_S1&#45;&gt;&#45;256.000000_S1</title>
<g id="a_edge15"><a xlink:title="gmM5S1">
<path fill="none" stroke="#64748b" d="M187.7267,-128.2363C215.909,-121.4166 256.7734,-111.5281 287.2478,-104.1538"/>
<polygon fill="#64748b" stroke="#64748b" points="288.1375,-106.4593 294.3648,-102.4316 286.9849,-101.6968 288.1375,-106.4593"/>
</a>
</g>
<text text-anchor="middle" x="240.6605" y="-122.9361" font-family="Helvetica,sans-Serif" font-size="9.00" fill="#000000">gmM5S1</text>
</g>
<!-- 128.000000_S1&#45;&gt;&#45;32.000000_S1 -->
<g id="edge16" class="edge">
<title>128.000000_S1&#45;&gt;&#45;32.000000_S1</title>
<g id="a_edge16"><a xlink:title="&#45;gmM4S1">
<path fill="none" stroke="#64748b" d="M190.8478,-138.9511C259.1322,-144.5017 412.722,-157.8358 541.2923,-175.1361 576.4732,-179.87 616.297,-186.7037 644.8812,-191.8692"/>
<polygon fill="#64748b" stroke="#64748b" points="644.5712,-194.303 651.8966,-193.1443 645.4475,-189.4819 644.5712,-194.303"/>
</a>
</g>
<text text-anchor="middle" x="418.1318" y="-165.9361" font-family="Helvetica,sans-Serif" font-size="9.00" fill="#000000">&#45;gmM4S1</text>
</g>
<!-- 128.000000_S1&#45;&gt;&#45;64.000000_S1 -->
<g id="edge17" class="edge">
<title>128.000000_S1&#45;&gt;&#45;64.000000_S1</title>
<g id="a_edge17"><a xlink:title="gmM4S1">
<path fill="none" stroke="#64748b" d="M179.4179,-149.5032C191.4829,-155.8639 206.3862,-163.3289 220.1605,-169.1361 243.8212,-179.1114 271.1917,-188.431 292.521,-195.2215"/>
<polygon fill="#64748b" stroke="#64748b" points="291.8086,-197.5657 299.2214,-197.335 293.2826,-192.8927 291.8086,-197.5657"/>
</a>
</g>
<text text-anchor="middle" x="240.6605" y="-186.9361" font-family="Helvetica,sans-Serif" font-size="9.00" fill="#000000">gmM4S1</text>
</g>
<!-- 16.000000_S1&#45;&gt;&#45;8.000000_S1 -->
<g id="edge18" class="edge">
<title>16.000000_S1&#45;&gt;&#45;8.000000_S1</title>
<g id="a_edge18"><a xlink:title="gmM3S1">
<path fill="none" stroke="#64748b" d="M1331.1895,-266.412C1368.4906,-266.708 1431.8531,-267.1361 1486.309,-267.1361 1486.309,-267.1361 1486.309,-267.1361 2268.5037,-267.1361 2314.886,-267.1361 2368.3303,-267.1361 2403.0311,-267.1361"/>
<polygon fill="#64748b" stroke="#64748b" points="2403.1421,-269.5862 2410.1421,-267.1361 2403.1421,-264.6862 2403.1421,-269.5862"/>
</a>
</g>
<text text-anchor="middle" x="1833.5622" y="-269.9361" font-family="Helvetica,sans-Serif" font-size="9.00" fill="#000000">gmM3S1</text>
</g>
<!-- 2.000000_S1&#45;&gt;&#45;4.000000_S1 -->
<g id="edge19" class="edge">
<title>2.000000_S1&#45;&gt;&#45;4.000000_S1</title>
<g id="a_edge19"><a xlink:title="G1">
<path fill="none" stroke="#64748b" d="M182.1999,-351.1361C211.7167,-351.1361 259.081,-351.1361 291.9177,-351.1361"/>
<polygon fill="#64748b" stroke="#64748b" points="292.1048,-353.5862 299.1048,-351.1361 292.1047,-348.6862 292.1048,-353.5862"/>
</a>
</g>
<text text-anchor="middle" x="240.6605" y="-353.9361" font-family="Helvetica,sans-Serif" font-size="9.00" fill="#000000">G1</text>
</g>
<!-- 2048.000000_S1&#45;&gt;&#45;1024.000000_S1 -->
<g id="edge20" class="edge">
<title>2048.000000_S1&#45;&gt;&#45;1024.000000_S1</title>
<g id="a_edge20"><a xlink:title="&#45;gmP1S1">
<path fill="none" stroke="#64748b" d="M1609.2705,-103.7521C1706.0896,-102.8468 1948.3366,-100.5816 2053.2181,-99.6009"/>
<polygon fill="#64748b" stroke="#64748b" points="2053.25,-102.0508 2060.2267,-99.5353 2053.2041,-97.151 2053.25,-102.0508"/>
</a>
</g>
<text text-anchor="middle" x="1833.5622" y="-104.9361" font-family="Helvetica,sans-Serif" font-size="9.00" fill="#000000">&#45;gmP1S1</text>
</g>
<!-- 2048.000000_S1&#45;&gt;&#45;512.000000_S1 -->
<g id="edge21" class="edge">
<title>2048.000000_S1&#45;&gt;&#45;512.000000_S1</title>
<g id="a_edge21"><a xlink:title="gmP1S1">
<path fill="none" stroke="#64748b" d="M1596.748,-91.1901C1609.2754,-85.7973 1624.253,-79.7344 1638.091,-75.1361 1658.885,-68.2263 1682.4624,-62.0805 1702.1366,-57.4046"/>
<polygon fill="#64748b" stroke="#64748b" points="1702.9399,-59.7328 1709.196,-55.7497 1701.8215,-54.9621 1702.9399,-59.7328"/>
</a>
</g>
<text text-anchor="middle" x="1657.591" y="-77.9361" font-family="Helvetica,sans-Serif" font-size="9.00" fill="#000000">gmP1S1</text>
</g>
<!-- 2048.000000_S1&#45;&gt;&#45;8.000000_S1 -->
<g id="edge22" class="edge">
<title>2048.000000_S1&#45;&gt;&#45;8.000000_S1</title>
<g id="a_edge22"><a xlink:title="&#45;gmP2sS1">
<path fill="none" stroke="#64748b" d="M1595.8938,-117.4026C1630.0376,-132.5137 1690.2291,-155.1361 1744.5766,-155.1361 1744.5766,-155.1361 1744.5766,-155.1361 2268.5037,-155.1361 2333.6813,-155.1361 2393.414,-212.6129 2422.0548,-245.2172"/>
<polygon fill="#64748b" stroke="#64748b" points="2420.2803,-246.911 2426.7084,-250.6101 2423.9901,-243.7098 2420.2803,-246.911"/>
</a>
</g>
<text text-anchor="middle" x="2008.2227" y="-157.9361" font-family="Helvetica,sans-Serif" font-size="9.00" fill="#000000">&#45;gmP2sS1</text>
</g>
<!-- 2048.000000_S1&#45;&gt;&#45;8192.000000_S1 -->
<g id="edge23" class="edge">
<title>2048.000000_S1&#45;&gt;&#45;8192.000000_S1</title>
<g id="a_edge23"><a xlink:title="&#45;gmP2S1">
<path fill="none" stroke="#64748b" d="M1586.1201,-87.8691C1610.9181,-66.601 1658.0944,-30.4862 1706.091,-17.1361 1830.4924,17.4658 1985.1647,-8.7016 2059.3056,-25.2626"/>
<polygon fill="#64748b" stroke="#64748b" points="2058.8568,-27.673 2066.2254,-26.833 2059.9412,-22.8945 2058.8568,-27.673"/>
</a>
</g>
<text text-anchor="middle" x="1833.5622" y="-3.9361" font-family="Helvetica,sans-Serif" font-size="9.00" fill="#000000">&#45;gmP2S1</text>
</g>
<!-- 256.000000_S1&#45;&gt;&#45;128.000000_S1 -->
<g id="edge24" class="edge">
<title>256.000000_S1&#45;&gt;&#45;128.000000_S1</title>
<g id="a_edge24"><a xlink:title="gmM5S1">
<path fill="none" stroke="#64748b" d="M539.6413,-88.7374C568.1639,-84.265 608.8808,-77.8804 639.7678,-73.0371"/>
<polygon fill="#64748b" stroke="#64748b" points="640.4595,-75.4087 646.9955,-71.9038 639.7004,-70.5678 640.4595,-75.4087"/>
</a>
</g>
<text text-anchor="middle" x="593.2923" y="-86.9361" font-family="Helvetica,sans-Serif" font-size="9.00" fill="#000000">gmM5S1</text>
</g>
<!-- 32.000000_S1&#45;&gt;&#45;16.000000_S1 -->
<g id="edge25" class="edge">
<title>32.000000_S1&#45;&gt;&#45;16.000000_S1</title>
<g id="a_edge25"><a xlink:title="gmM3sS1">
<path fill="none" stroke="#64748b" d="M880.2548,-208.7045C911.3151,-219.6629 962.3015,-237.6515 996.4258,-249.6909"/>
<polygon fill="#64748b" stroke="#64748b" points="996.022,-252.1464 1003.4384,-252.165 997.6523,-247.5255 996.022,-252.1464"/>
</a>
</g>
<text text-anchor="middle" x="937.0054" y="-238.9361" font-family="Helvetica,sans-Serif" font-size="9.00" fill="#000000">gmM3sS1</text>
</g>
<!-- 32.000000_S1&#45;&gt;&#45;4096.000000_S1 -->
<g id="edge26" class="edge">
<title>32.000000_S1&#45;&gt;&#45;4096.000000_S1</title>
<g id="a_edge26"><a xlink:title="gmM0sS1">
<path fill="none" stroke="#64748b" d="M885.0585,-199.1361C911.8981,-199.1361 950.7305,-199.1361 981.6926,-199.1361"/>
<polygon fill="#64748b" stroke="#64748b" points="981.9773,-201.5862 988.9772,-199.1361 981.9772,-196.6862 981.9773,-201.5862"/>
</a>
</g>
<text text-anchor="middle" x="937.0054" y="-201.9361" font-family="Helvetica,sans-Serif" font-size="9.00" fill="#000000">gmM0sS1</text>
</g>
<!-- 4.000000_S1&#45;&gt;&#45;16.000000_S1 -->
<g id="edge27" class="edge">
<title>4.000000_S1&#45;&gt;&#45;16.000000_S1</title>
<g id="a_edge27"><a xlink:title="gmM3S1">
<path fill="none" stroke="#64748b" d="M532.4097,-278.2579C618.8777,-275.4659 887.8219,-266.7819 990.9138,-263.4531"/>
<polygon fill="#64748b" stroke="#64748b" points="991.1277,-265.8976 998.045,-263.2228 990.9695,-261.0001 991.1277,-265.8976"/>
</a>
</g>
<text text-anchor="middle" x="771.7635" y="-272.9361" font-family="Helvetica,sans-Serif" font-size="9.00" fill="#000000">gmM3S1</text>
</g>
<!-- 4.000000_S1&#45;&gt;&#45;32.000000_S1 -->
<g id="edge28" class="edge">
<title>4.000000_S1&#45;&gt;&#45;32.000000_S1</title>
<g id="a_edge28"><a xlink:title="gmM3sS1">
<path fill="none" stroke="#64748b" d="M523.974,-266.1264C536.6624,-257.7037 554.0122,-246.8999 570.2923,-239.1361 595.0703,-227.3198 624.3124,-217.095 646.9072,-209.9411"/>
<polygon fill="#64748b" stroke="#64748b" points="647.7425,-212.247 653.6936,-207.8212 646.2815,-207.5699 647.7425,-212.247"/>
</a>
</g>
<text text-anchor="middle" x="593.2923" y="-241.9361" font-family="Helvetica,sans-Serif" font-size="9.00" fill="#000000">gmM3sS1</text>
</g>
<!-- 4.000000_S1&#45;&gt;&#45;8.000000_S1 -->
<g id="edge29" class="edge">
<title>4.000000_S1&#45;&gt;&#45;8.000000_S1</title>
<g id="a_edge29"><a xlink:title="C1">
<path fill="none" stroke="#64748b" d="M529.111,-287.7915C563.0295,-299.2812 627.2953,-318.1361 683.7779,-318.1361 683.7779,-318.1361 683.7779,-318.1361 2268.5037,-318.1361 2320.1546,-318.1361 2377.0604,-296.587 2410.5653,-281.5037"/>
<polygon fill="#64748b" stroke="#64748b" points="2411.6016,-283.7238 2416.9458,-278.5815 2409.5613,-279.2688 2411.6016,-283.7238"/>
</a>
</g>
<text text-anchor="middle" x="1486.309" y="-320.9361" font-family="Helvetica,sans-Serif" font-size="9.00" fill="#000000">C1</text>
</g>
<!-- 4096.000000_S1&#45;&gt;&#45;2048.000000_S1 -->
<g id="edge30" class="edge">
<title>4096.000000_S1&#45;&gt;&#45;2048.000000_S1</title>
<g id="a_edge30"><a xlink:title="gmM0S1">
<path fill="none" stroke="#64748b" d="M1238.3439,-199.1361C1271.231,-199.1361 1317.5022,-199.1361 1352.5589,-199.1361"/>
<polygon fill="#64748b" stroke="#64748b" points="1352.8606,-201.5862 1359.8605,-199.1361 1352.8605,-196.6862 1352.8606,-201.5862"/>
</a>
</g>
<text text-anchor="middle" x="1299.0482" y="-201.9361" font-family="Helvetica,sans-Serif" font-size="9.00" fill="#000000">gmM0S1</text>
</g>
<!-- 512.000000_S1&#45;&gt;&#45;1024.000000_S1 -->
<g id="edge31" class="edge">
<title>512.000000_S1&#45;&gt;&#45;1024.000000_S1</title>
<g id="a_edge31"><a xlink:title="gmP1S1">
<path fill="none" stroke="#64748b" d="M1952.8536,-55.8034C1975.0567,-61.149 2005.0274,-68.641 2031.2227,-76.1361 2041.4339,-79.0578 2052.3853,-82.4417 2062.5785,-85.7002"/>
<polygon fill="#64748b" stroke="#64748b" points="2062.0817,-88.1141 2069.4958,-87.9287 2063.5844,-83.4501 2062.0817,-88.1141"/>
</a>
</g>
<text text-anchor="middle" x="2008.2227" y="-78.9361" font-family="Helvetica,sans-Serif" font-size="9.00" fill="#000000">gmP1S1</text>
</g>
<!-- 512.000000_S1&#45;&gt;&#45;8192.000000_S1 -->
<g id="edge32" class="edge">
<title>512.000000_S1&#45;&gt;&#45;8192.000000_S1</title>
<g id="a_edge32"><a xlink:title="gmP2S1">
<path fill="none" stroke="#64748b" d="M1953.4232,-40.7933C1963.578,-38.8794 1974.8111,-37.088 1985.2227,-36.1361 2007.4294,-34.1059 2032.0916,-33.8067 2053.08,-34.1315"/>
<polygon fill="#64748b" stroke="#64748b" points="2053.295,-36.586 2060.3407,-34.2706 2053.3889,-31.6869 2053.295,-36.586"/>
</a>
</g>
<text text-anchor="middle" x="2008.2227" y="-38.9361" font-family="Helvetica,sans-Serif" font-size="9.00" fill="#000000">gmP2S1</text>
</g>
<!-- 64.000000_S1&#45;&gt;&#45;32.000000_S1 -->
<g id="edge33" class="edge">
<title>64.000000_S1&#45;&gt;&#45;32.000000_S1</title>
<g id="a_edge33"><a xlink:title="gmM4S1">
<path fill="none" stroke="#64748b" d="M536.6041,-202.0726C547.2759,-200.8743 559.2852,-199.7264 570.2923,-199.1361 594.3316,-197.847 621.2764,-197.7885 642.8768,-198.0795"/>
<polygon fill="#64748b" stroke="#64748b" points="642.948,-200.5308 649.9853,-198.1903 643.0244,-195.6314 642.948,-200.5308"/>
</a>
</g>
<text text-anchor="middle" x="593.2923" y="-201.9361" font-family="Helvetica,sans-Serif" font-size="9.00" fill="#000000">gmM4S1</text>
</g>
<!-- 8.000000_S1&#45;&gt;&#45;4.000000_S1 -->
<g id="edge34" class="edge">
<title>8.000000_S1&#45;&gt;&#45;4.000000_S1</title>
<g id="a_edge34"><a xlink:title="C1">
<path fill="none" stroke="#64748b" d="M2558.5782,-330.4818C2532.4226,-345.5754 2484.4524,-369.1361 2439.8602,-369.1361 505.212,-369.1361 505.212,-369.1361 505.212,-369.1361 456.309,-369.1361 400.1781,-362.2177 364.5775,-356.9592"/>
<polygon fill="#64748b" stroke="#64748b" points="364.5889,-354.4835 357.3024,-355.8654 363.8603,-359.329 364.5889,-354.4835"/>
</a>
</g>
<text text-anchor="middle" x="1486.309" y="-371.9361" font-family="Helvetica,sans-Serif" font-size="9.00" fill="#000000">C1</text>
</g>
<!-- 8.000000_S1&#45;&gt;100 -->
<g id="edge35" class="edge">
<title>8.000000_S1&#45;&gt;100</title>
<g id="a_edge35"><a xlink:title="1">
<path fill="none" stroke="#64748b" d="M2605.7008,-318.1361C2622.7923,-318.1361 2644.9538,-318.1361 2663.2139,-318.1361"/>
<polygon fill="#64748b" stroke="#64748b" points="2663.2585,-320.5862 2670.2584,-318.1361 2663.2584,-315.6862 2663.2585,-320.5862"/>
</a>
</g>
<text text-anchor="middle" x="2637.9462" y="-320.9361" font-family="Helvetica,sans-Serif" font-size="9.00" fill="#000000">1</text>
</g>
<!-- 8192.000000_S1&#45;&gt;&#45;8.000000_S1 -->
<g id="edge36" class="edge">
<title>8192.000000_S1&#45;&gt;&#45;8.000000_S1</title>
<g id="a_edge36"><a xlink:title="gmP2sS1">
<path fill="none" stroke="#64748b" d="M2308.9927,-96.3255C2332.6082,-100.1169 2361.5567,-108.3449 2381.3947,-126.1361 2415.5488,-156.7665 2430.2466,-210.4512 2436.1836,-242.0011"/>
<polygon fill="#64748b" stroke="#64748b" points="2433.8145,-242.6737 2437.4481,-249.139 2438.6394,-241.8189 2433.8145,-242.6737"/>
</a>
</g>
<text text-anchor="middle" x="2359.8947" y="-128.9361" font-family="Helvetica,sans-Serif" font-size="9.00" fill="#000000">gmP2sS1</text>
</g>
</g>
</svg>
