<?xml version="1.0" encoding="UTF-8" standalone="no"?>
<!DOCTYPE svg PUBLIC "-//W3C//DTD SVG 1.1//EN"
 "http://www.w3.org/Graphics/SVG/1.1/DTD/svg11.dtd">
<!-- Generated by graphviz version 2.40.1 (0)
 -->
<!-- Title: SFG Pages: 1 -->
<svg width="720pt" height="208pt"
 viewBox="0.00 0.00 719.50 208.40" xmlns="http://www.w3.org/2000/svg" xmlns:xlink="http://www.w3.org/1999/xlink">
<g id="graph0" class="graph" transform="scale(1 1) rotate(0) translate(25.2 183.2)">
<title>SFG</title>
<polygon fill="#ffffff" stroke="transparent" points="-25.2,25.2 -25.2,-183.2 694.303,-183.2 694.303,25.2 -25.2,25.2"/>
<!-- &#45;100 -->
<g id="node1" class="node">
<title>&#45;100</title>
<ellipse fill="#dcfce7" stroke="#64748b" cx="27" cy="-79" rx="27" ry="18"/>
<text text-anchor="middle" x="27" y="-76.2" font-family="Helvetica,sans-Serif" font-size="11.00" fill="#000000">VI</text>
</g>
<!-- 2.000000_S1 -->
<g id="node6" class="node">
<title>2.000000_S1</title>
<ellipse fill="#dbeafe" stroke="#64748b" cx="146.0602" cy="-79" rx="27.1205" ry="18"/>
<text text-anchor="middle" x="146.0602" y="-76.2" font-family="Helvetica,sans-Serif" font-size="11.00" fill="#000000">2_S1</text>
</g>
<!-- &#45;100&#45;&gt;2.000000_S1 -->
<g id="edge1" class="edge">
<title>&#45;100&#45;&gt;2.000000_S1</title>
<g id="a_edge1"><a xlink:title="1">
<path fill="none" stroke="#64748b" d="M54.0166,-79C71.097,-79 93.3287,-79 111.6639,-79"/>
<polygon fill="#64748b" stroke="#64748b" points="111.7384,-81.4501 118.7384,-79 111.7383,-76.5501 111.7384,-81.4501"/>
</a>
</g>
<text text-anchor="middle" x="86.5" y="-81.8" font-family="Helvetica,sans-Serif" font-size="9.00" fill="#000000">1</text>
</g>
<!-- &#45;2.000000_S1 -->
<g id="node2" class="node">
<title>&#45;2.000000_S1</title>
<ellipse fill="#ffedd5" stroke="#64748b" cx="639.6375" cy="-107" rx="29.4311" ry="18"/>
<text text-anchor="middle" x="639.6375" y="-104.2" font-family="Helvetica,sans-Serif" font-size="11.00" fill="#000000">&#45;2_S1</text>
</g>
<!-- &#45;2.000000_S1&#45;&gt;2.000000_S1 -->
<g id="edge2" class="edge">
<title>&#45;2.000000_S1&#45;&gt;2.000000_S1</title>
<g id="a_edge2"><a xlink:title="1/(gdsM1S1+s.CgsM1S1+s.CdsM1S1)">
<path fill="none" stroke="#64748b" d="M610.6428,-110.6128C544.1862,-118.1567 375.9737,-133.0559 238.1204,-110 216.6814,-106.4143 193.4942,-98.5811 175.7536,-91.6863"/>
<polygon fill="#64748b" stroke="#64748b" points="176.4037,-89.3084 168.9936,-89.0023 174.5955,-93.8626 176.4037,-89.3084"/>
</a>
</g>
<text text-anchor="middle" x="377.0515" y="-124.8" font-family="Helvetica,sans-Serif" font-size="9.00" fill="#000000">e002</text>
</g>
<!-- &#45;4.000000_S1 -->
<g id="node3" class="node">
<title>&#45;4.000000_S1</title>
<ellipse fill="#ffedd5" stroke="#64748b" cx="267.586" cy="-79" rx="29.4311" ry="18"/>
<text text-anchor="middle" x="267.586" y="-76.2" font-family="Helvetica,sans-Serif" font-size="11.00" fill="#000000">&#45;4_S1</text>
</g>
<!-- 4.000000_S1 -->
<g id="node7" class="node">
<title>4.000000_S1</title>
<ellipse fill="#dbeafe" stroke="#64748b" cx="484.1117" cy="-79" rx="27.1205" ry="18"/>
<text text-anchor="middle" x="484.1117" y="-76.2" font-family="Helvetica,sans-Serif" font-size="11.00" fill="#000000">4_S1</text>
</g>
<!-- &#45;4.000000_S1&#45;&gt;4.000000_S1 -->
<g id="edge3" class="edge">
<title>&#45;4.000000_S1&#45;&gt;4.000000_S1</title>
<g id="a_edge3"><a xlink:title="1/(G+s.C+s.CgsM1S1)">
<path fill="none" stroke="#64748b" d="M297.2389,-79C337.0926,-79 407.7817,-79 449.8594,-79"/>
<polygon fill="#64748b" stroke="#64748b" points="449.8634,-81.4501 456.8633,-79 449.8633,-76.5501 449.8634,-81.4501"/>
</a>
</g>
<text text-anchor="middle" x="377.0515" y="-81.8" font-family="Helvetica,sans-Serif" font-size="9.00" fill="#000000">1/(G+s.C+s.CgsM1S1)</text>
</g>
<!-- 1 -->
<g id="node4" class="node">
<title>1</title>
<ellipse fill="#dbeafe" stroke="#64748b" cx="27" cy="-140" rx="27" ry="18"/>
<text text-anchor="middle" x="27" y="-137.2" font-family="Helvetica,sans-Serif" font-size="11.00" fill="#000000">1</text>
</g>
<!-- 100 -->
<g id="node5" class="node">
<title>100</title>
<ellipse fill="#dcfce7" stroke="#64748b" cx="267.586" cy="-18" rx="27" ry="18"/>
<text text-anchor="middle" x="267.586" y="-15.2" font-family="Helvetica,sans-Serif" font-size="11.00" fill="#000000">VO</text>
</g>
<!-- 2.000000_S1&#45;&gt;&#45;4.000000_S1 -->
<g id="edge4" class="edge">
<title>2.000000_S1&#45;&gt;&#45;4.000000_S1</title>
<g id="a_edge4"><a xlink:title="C">
<path fill="none" stroke="#64748b" d="M173.333,-79C190.2605,-79 212.2309,-79 230.701,-79"/>
<polygon fill="#64748b" stroke="#64748b" points="230.8514,-81.4501 237.8513,-79 230.8513,-76.5501 230.8514,-81.4501"/>
</a>
</g>
<text text-anchor="middle" x="205.6204" y="-81.8" font-family="Helvetica,sans-Serif" font-size="9.00" fill="#000000">C</text>
</g>
<!-- 2.000000_S1&#45;&gt;100 -->
<g id="edge5" class="edge">
<title>2.000000_S1&#45;&gt;100</title>
<g id="a_edge5"><a xlink:title="1">
<path fill="none" stroke="#64748b" d="M167.7866,-68.0944C187.7091,-58.0943 217.3408,-43.2206 239.1426,-32.2772"/>
<polygon fill="#64748b" stroke="#64748b" points="240.4809,-34.3468 245.6379,-29.0168 238.2827,-29.9675 240.4809,-34.3468"/>
</a>
</g>
<text text-anchor="middle" x="205.6204" y="-53.8" font-family="Helvetica,sans-Serif" font-size="9.00" fill="#000000">1</text>
</g>
<!-- 4.000000_S1&#45;&gt;&#45;2.000000_S1 -->
<g id="edge6" class="edge">
<title>4.000000_S1&#45;&gt;&#45;2.000000_S1</title>
<g id="a_edge6"><a xlink:title="gmM1S1">
<path fill="none" stroke="#64748b" d="M510.4945,-83.7498C536.3002,-88.3957 575.7698,-95.5016 604.282,-100.6348"/>
<polygon fill="#64748b" stroke="#64748b" points="603.9564,-103.0655 611.2798,-101.8946 604.8247,-98.243 603.9564,-103.0655"/>
</a>
</g>
<text text-anchor="middle" x="560.6719" y="-98.8" font-family="Helvetica,sans-Serif" font-size="9.00" fill="#000000">gmM1S1</text>
</g>
</g>
</svg>
